<svg width="32" height="32" viewBox="0 0 32 32" fill="none" xmlns="http://www.w3.org/2000/svg">
  <defs>
    <style>
      .brain-primary { fill: #3B82F6; }
      .brain-secondary { fill: #F59E0B; }
      .brain-stroke { stroke: #3B82F6; stroke-width: 1.5; fill: none; }
      .connection { stroke: #3B82F6; stroke-width: 1; opacity: 0.6; }
    </style>
  </defs>
  <!-- Brain outline -->
  <path d="M16 4C12.5 4 10 6.5 10 10C10 10.5 10.1 11 10.2 11.5C9.5 11.2 8.7 11 8 11C5.8 11 4 12.8 4 15C4 16.5 4.8 17.8 6 18.5C6 18.7 6 18.8 6 19C6 22.3 8.7 25 12 25C12.5 25 13 24.9 13.5 24.8C14.3 26.5 16 27.5 18 27.5C20.5 27.5 22.5 25.5 22.5 23C22.5 22.5 22.4 22 22.2 21.5C23.8 20.8 25 19.2 25 17.5C25 15.5 23.5 13.8 21.5 13.2C21.8 12.5 22 11.8 22 11C22 7.1 18.9 4 16 4Z" class="brain-stroke"/>

  <!-- Neural connections -->
  <circle cx="12" cy="12" r="1.5" class="brain-primary"/>
  <circle cx="20" cy="14" r="1.5" class="brain-primary"/>
  <circle cx="14" cy="18" r="1.5" class="brain-primary"/>
  <circle cx="18" cy="20" r="1.5" class="brain-primary"/>

  <!-- Connection lines -->
  <line x1="12" y1="12" x2="20" y2="14" class="connection"/>
  <line x1="12" y1="12" x2="14" y2="18" class="connection"/>
  <line x1="20" y1="14" x2="18" y2="20" class="connection"/>
  <line x1="14" y1="18" x2="18" y2="20" class="connection"/>

  <!-- AI spark -->
  <path d="M24 8L26 6L24 4L22 6L24 8Z" class="brain-secondary" opacity="0.8"/>
  <path d="M26 10L28 8L26 6L24 8L26 10Z" class="brain-secondary" opacity="0.6"/>
</svg>
